<svg xmlns="http://www.w3.org/2000/svg" version="1.1" xmlns:xlink="http://www.w3.org/1999/xlink" xmlns:svgjs="http://svgjs.com/svgjs" width="1440" height="560" preserveAspectRatio="none" viewBox="0 0 1440 560"><g mask="url(&quot;#SvgjsMask1012&quot;)" fill="none"><rect width="1440" height="560" x="0" y="0" fill="#0e2a47"></rect><path d="M689.49 107.36 a102.55 102.55 0 1 0 205.1 0 a102.55 102.55 0 1 0 -205.1 0z" fill="rgba(28, 83, 142, 0.4)" class="triangle-float1"></path><path d="M795.5268613375614 237.00736604067356L798.7814037270327 143.80946585578806 705.5835035421472 140.55492346631678 702.3289611526759 233.75282365120228z" fill="rgba(28, 83, 142, 0.4)" class="triangle-float3"></path><path d="M977.445,574.648C1003.239,575.661,1031.902,574.896,1046.584,553.664C1062.922,530.039,1062.206,497.975,1047.551,473.271C1033.173,449.033,1005.504,434.477,977.445,437.11C952.788,439.424,938.728,462.809,926.94,484.588C915.93,504.93,905.798,528.406,917.111,548.58C928.596,569.06,953.982,573.727,977.445,574.648" fill="rgba(28, 83, 142, 0.4)" class="triangle-float3"></path><path d="M902.201,701.561C960.952,703.171,1003.999,652.618,1032.607,601.278C1060.286,551.604,1073.78,492.574,1046.439,442.713C1018.169,391.159,960.996,363.735,902.201,363.466C842.907,363.194,782.737,388.631,755.656,441.38C730.265,490.836,756.329,546.019,783.611,594.457C811.628,644.199,845.132,699.998,902.201,701.561" fill="rgba(28, 83, 142, 0.4)" class="triangle-float2"></path><path d="M824.18 298.79 a118.47 118.47 0 1 0 236.94 0 a118.47 118.47 0 1 0 -236.94 0z" fill="rgba(28, 83, 142, 0.4)" class="triangle-float3"></path><path d="M1474.012,285.669C1521.527,284.653,1571.102,271.417,1594.982,230.326C1618.955,189.074,1608.056,138.178,1583.496,97.273C1559.753,57.727,1520.1,30.719,1474.012,28.845C1424.347,26.826,1374.432,45.638,1347.943,87.698C1319.753,132.458,1315.324,191.08,1343.737,235.698C1370.513,277.745,1424.174,286.735,1474.012,285.669" fill="rgba(28, 83, 142, 0.4)" class="triangle-float3"></path><path d="M414.42218434744484 75.00182406617736L444.2785340044316 157.03147057609021 526.3081805143445 127.17512091910348 496.4518308573577 45.14547440919062z" fill="rgba(28, 83, 142, 0.4)" class="triangle-float3"></path><path d="M76.722,591.619C125.713,591.092,173.943,575.205,201.478,534.681C232.9,488.436,249.907,427.208,220.92,379.399C192.621,332.726,131.297,328.024,76.722,328.922C24.237,329.785,-31.791,339.422,-59.486,384.013C-88.429,430.614,-82.864,491.548,-52.771,537.415C-25.259,579.348,26.572,592.158,76.722,591.619" fill="rgba(28, 83, 142, 0.4)" class="triangle-float1"></path><path d="M652.98 399.32 a139.16 139.16 0 1 0 278.32 0 a139.16 139.16 0 1 0 -278.32 0z" fill="rgba(28, 83, 142, 0.4)" class="triangle-float3"></path><path d="M1192.212409105956 155.68963947444234L1287.5830439383612 42.0313427849331 1078.554112416447 60.319004642037285z" fill="rgba(28, 83, 142, 0.4)" class="triangle-float1"></path><path d="M74.993,408.802C93.697,409.29,114.374,406.637,124.123,390.668C134.164,374.221,128.357,353.743,118.834,336.991C109.172,319.995,94.531,304.94,74.993,304.244C54.4,303.51,35.094,315.486,25.381,333.659C16.159,350.913,19.333,371.887,30.112,388.214C39.832,402.936,57.358,408.342,74.993,408.802" fill="rgba(28, 83, 142, 0.4)" class="triangle-float2"></path><path d="M-119.53 131.61 a155.54 155.54 0 1 0 311.08 0 a155.54 155.54 0 1 0 -311.08 0z" fill="rgba(28, 83, 142, 0.4)" class="triangle-float3"></path><path d="M1305.1077426009276 164.53026798543527L1260.4652383791035 80.56992881611548 1156.8459817360358 189.5138547335115z" fill="rgba(28, 83, 142, 0.4)" class="triangle-float1"></path><path d="M1251.711,563.452C1301.708,562.948,1342.433,527.003,1366.26,483.045C1388.885,441.306,1389.88,391.937,1367.325,350.16C1343.531,306.089,1301.769,272.484,1251.711,270.876C1198.984,269.182,1148,296.127,1122.472,342.293C1097.665,387.156,1107.229,441.132,1133.094,485.394C1158.69,529.194,1200.983,563.963,1251.711,563.452" fill="rgba(28, 83, 142, 0.4)" class="triangle-float1"></path><path d="M-52.3 160.04 a174.6 174.6 0 1 0 349.2 0 a174.6 174.6 0 1 0 -349.2 0z" fill="rgba(28, 83, 142, 0.4)" class="triangle-float2"></path><path d="M821.5090625108202 279.76681901777727L759.5566833278272 292.9352037241917 810.2854499789453 379.2795801454739z" fill="rgba(28, 83, 142, 0.4)" class="triangle-float2"></path></g><defs><mask id="SvgjsMask1012"><rect width="1440" height="560" fill="#ffffff"></rect></mask><style>
            @keyframes float1 {
                0%{transform: translate(0, 0)}
                50%{transform: translate(-10px, 0)}
                100%{transform: translate(0, 0)}
            }

            .triangle-float1 {
                animation: float1 5s infinite;
            }

            @keyframes float2 {
                0%{transform: translate(0, 0)}
                50%{transform: translate(-5px, -5px)}
                100%{transform: translate(0, 0)}
            }

            .triangle-float2 {
                animation: float2 4s infinite;
            }

            @keyframes float3 {
                0%{transform: translate(0, 0)}
                50%{transform: translate(0, -10px)}
                100%{transform: translate(0, 0)}
            }

            .triangle-float3 {
                animation: float3 6s infinite;
            }
        </style></defs></svg>